<svg width="160" height="160" viewBox="0 0 160 160" fill="none" xmlns="http://www.w3.org/2000/svg">
<rect x="55.1724" width="5.51724" height="5.51724" fill="white"/>
<rect x="82.7586" width="5.51724" height="5.51724" fill="white"/>
<rect x="88.2759" width="5.51724" height="5.51724" fill="white"/>
<rect x="99.3104" width="5.51724" height="5.51724" fill="white"/>
<rect x="44.1379" y="5.51721" width="5.51724" height="5.51724" fill="white"/>
<rect x="49.6552" y="5.51721" width="5.51724" height="5.51724" fill="white"/>
<rect x="60.6896" y="5.51721" width="5.51724" height="5.51724" fill="white"/>
<rect x="66.2069" y="5.51721" width="5.51724" height="5.51724" fill="white"/>
<rect x="71.7241" y="5.51721" width="5.51724" height="5.51724" fill="white"/>
<rect x="77.2414" y="5.51721" width="5.51724" height="5.51724" fill="white"/>
<rect x="88.2759" y="5.51721" width="5.51724" height="5.51724" fill="white"/>
<rect x="93.7931" y="5.51721" width="5.51724" height="5.51724" fill="white"/>
<rect x="110.345" y="5.51721" width="5.51724" height="5.51724" fill="white"/>
<rect x="44.1379" y="11.0345" width="5.51724" height="5.51724" fill="white"/>
<rect x="49.6552" y="11.0345" width="5.51724" height="5.51724" fill="white"/>
<rect x="55.1724" y="11.0345" width="5.51724" height="5.51724" fill="white"/>
<rect x="66.2069" y="11.0345" width="5.51724" height="5.51724" fill="white"/>
<rect x="71.7241" y="11.0345" width="5.51724" height="5.51724" fill="white"/>
<rect x="82.7586" y="11.0345" width="5.51724" height="5.51724" fill="white"/>
<rect x="99.3104" y="11.0345" width="5.51724" height="5.51724" fill="white"/>
<rect x="110.345" y="11.0345" width="5.51724" height="5.51724" fill="white"/>
<rect x="44.1379" y="16.5517" width="5.51724" height="5.51724" fill="white"/>
<rect x="49.6552" y="16.5517" width="5.51724" height="5.51724" fill="white"/>
<rect x="60.6896" y="16.5517" width="5.51724" height="5.51724" fill="white"/>
<rect x="88.2759" y="16.5517" width="5.51724" height="5.51724" fill="white"/>
<rect x="93.7931" y="16.5517" width="5.51724" height="5.51724" fill="white"/>
<rect x="110.345" y="16.5517" width="5.51724" height="5.51724" fill="white"/>
<rect x="49.6552" y="22.069" width="5.51724" height="5.51724" fill="white"/>
<rect x="82.7586" y="22.069" width="5.51724" height="5.51724" fill="white"/>
<rect x="88.2759" y="22.069" width="5.51724" height="5.51724" fill="white"/>
<rect x="104.828" y="22.069" width="5.51724" height="5.51724" fill="white"/>
<rect x="110.345" y="22.069" width="5.51724" height="5.51724" fill="white"/>
<rect x="49.6552" y="27.5862" width="5.51724" height="5.51724" fill="white"/>
<rect x="66.2069" y="27.5862" width="5.51724" height="5.51724" fill="white"/>
<rect x="82.7586" y="27.5862" width="5.51724" height="5.51724" fill="white"/>
<rect x="110.345" y="27.5862" width="5.51724" height="5.51724" fill="white"/>
<rect x="44.1379" y="33.1035" width="5.51724" height="5.51724" fill="white"/>
<rect x="55.1724" y="33.1035" width="5.51724" height="5.51724" fill="white"/>
<rect x="66.2069" y="33.1035" width="5.51724" height="5.51724" fill="white"/>
<rect x="77.2414" y="33.1035" width="5.51724" height="5.51724" fill="white"/>
<rect x="88.2759" y="33.1035" width="5.51724" height="5.51724" fill="white"/>
<rect x="99.3104" y="33.1035" width="5.51724" height="5.51724" fill="white"/>
<rect x="110.345" y="33.1035" width="5.51724" height="5.51724" fill="white"/>
<rect x="44.1379" y="38.6207" width="5.51724" height="5.51724" fill="white"/>
<rect x="60.6896" y="38.6207" width="5.51724" height="5.51724" fill="white"/>
<rect x="77.2414" y="38.6207" width="5.51724" height="5.51724" fill="white"/>
<rect x="82.7586" y="38.6207" width="5.51724" height="5.51724" fill="white"/>
<rect x="88.2759" y="38.6207" width="5.51724" height="5.51724" fill="white"/>
<rect x="99.3104" y="38.6207" width="5.51724" height="5.51724" fill="white"/>
<rect x="110.345" y="38.6207" width="5.51724" height="5.51724" fill="white"/>
<rect y="44.1379" width="5.51724" height="5.51724" fill="white"/>
<rect x="33.1035" y="44.1379" width="5.51724" height="5.51724" fill="white"/>
<rect x="44.1379" y="44.1379" width="5.51724" height="5.51724" fill="white"/>
<rect x="55.1724" y="44.1379" width="5.51724" height="5.51724" fill="white"/>
<rect x="88.2759" y="44.1379" width="5.51724" height="5.51724" fill="white"/>
<rect x="93.7931" y="44.1379" width="5.51724" height="5.51724" fill="white"/>
<rect x="104.828" y="44.1379" width="5.51724" height="5.51724" fill="white"/>
<rect x="115.862" y="44.1379" width="5.51724" height="5.51724" fill="white"/>
<rect x="121.379" y="44.1379" width="5.51724" height="5.51724" fill="white"/>
<rect x="137.931" y="44.1379" width="5.51724" height="5.51724" fill="white"/>
<rect x="143.448" y="44.1379" width="5.51724" height="5.51724" fill="white"/>
<rect x="148.966" y="44.1379" width="5.51724" height="5.51724" fill="white"/>
<rect y="49.6552" width="5.51724" height="5.51724" fill="white"/>
<rect x="11.0345" y="49.6552" width="5.51724" height="5.51724" fill="white"/>
<rect x="27.5862" y="49.6552" width="5.51724" height="5.51724" fill="white"/>
<rect x="71.7241" y="49.6552" width="5.51724" height="5.51724" fill="white"/>
<rect x="88.2759" y="49.6552" width="5.51724" height="5.51724" fill="white"/>
<rect x="93.7931" y="49.6552" width="5.51724" height="5.51724" fill="white"/>
<rect x="99.3104" y="49.6552" width="5.51724" height="5.51724" fill="white"/>
<rect x="104.828" y="49.6552" width="5.51724" height="5.51724" fill="white"/>
<rect x="126.897" y="49.6552" width="5.51724" height="5.51724" fill="white"/>
<rect x="132.414" y="49.6552" width="5.51724" height="5.51724" fill="white"/>
<rect x="143.448" y="49.6552" width="5.51724" height="5.51724" fill="white"/>
<rect x="148.966" y="49.6552" width="5.51724" height="5.51724" fill="white"/>
<rect x="5.51721" y="55.1724" width="5.51724" height="5.51724" fill="white"/>
<rect x="11.0345" y="55.1724" width="5.51724" height="5.51724" fill="white"/>
<rect x="16.5517" y="55.1724" width="5.51724" height="5.51724" fill="white"/>
<rect x="22.069" y="55.1724" width="5.51724" height="5.51724" fill="white"/>
<rect x="33.1035" y="55.1724" width="5.51724" height="5.51724" fill="white"/>
<rect x="38.6207" y="55.1724" width="5.51724" height="5.51724" fill="white"/>
<rect x="44.1379" y="55.1724" width="5.51724" height="5.51724" fill="white"/>
<rect x="49.6552" y="55.1724" width="5.51724" height="5.51724" fill="white"/>
<rect x="66.2069" y="55.1724" width="5.51724" height="5.51724" fill="white"/>
<rect x="71.7241" y="55.1724" width="5.51724" height="5.51724" fill="white"/>
<rect x="77.2414" y="55.1724" width="5.51724" height="5.51724" fill="white"/>
<rect x="82.7586" y="55.1724" width="5.51724" height="5.51724" fill="white"/>
<rect x="88.2759" y="55.1724" width="5.51724" height="5.51724" fill="white"/>
<rect x="93.7931" y="55.1724" width="5.51724" height="5.51724" fill="white"/>
<rect y="60.6896" width="5.51724" height="5.51724" fill="white"/>
<rect x="11.0345" y="60.6896" width="5.51724" height="5.51724" fill="white"/>
<rect x="27.5862" y="60.6896" width="5.51724" height="5.51724" fill="white"/>
<rect x="38.6207" y="60.6896" width="5.51724" height="5.51724" fill="white"/>
<rect x="44.1379" y="60.6896" width="5.51724" height="5.51724" fill="white"/>
<rect x="49.6552" y="60.6896" width="5.51724" height="5.51724" fill="white"/>
<rect x="55.1724" y="60.6896" width="5.51724" height="5.51724" fill="white"/>
<rect x="66.2069" y="60.6896" width="5.51724" height="5.51724" fill="white"/>
<rect x="71.7241" y="60.6896" width="5.51724" height="5.51724" fill="white"/>
<rect x="110.345" y="60.6896" width="5.51724" height="5.51724" fill="white"/>
<rect x="121.379" y="60.6896" width="5.51724" height="5.51724" fill="white"/>
<rect x="126.897" y="60.6896" width="5.51724" height="5.51724" fill="white"/>
<rect x="137.931" y="60.6896" width="5.51724" height="5.51724" fill="white"/>
<rect x="5.51721" y="66.2069" width="5.51724" height="5.51724" fill="white"/>
<rect x="27.5862" y="66.2069" width="5.51724" height="5.51724" fill="white"/>
<rect x="33.1035" y="66.2069" width="5.51724" height="5.51724" fill="white"/>
<rect x="44.1379" y="66.2069" width="5.51724" height="5.51724" fill="white"/>
<rect x="55.1724" y="66.2069" width="5.51724" height="5.51724" fill="white"/>
<rect x="71.7241" y="66.2069" width="5.51724" height="5.51724" fill="white"/>
<rect x="82.7586" y="66.2069" width="5.51724" height="5.51724" fill="white"/>
<rect x="88.2759" y="66.2069" width="5.51724" height="5.51724" fill="white"/>
<rect x="104.828" y="66.2069" width="5.51724" height="5.51724" fill="white"/>
<rect x="110.345" y="66.2069" width="5.51724" height="5.51724" fill="white"/>
<rect x="121.379" y="66.2069" width="5.51724" height="5.51724" fill="white"/>
<rect x="126.897" y="66.2069" width="5.51724" height="5.51724" fill="white"/>
<rect x="154.483" y="66.2069" width="5.51724" height="5.51724" fill="white"/>
<rect x="11.0345" y="71.7241" width="5.51724" height="5.51724" fill="white"/>
<rect x="22.069" y="71.7241" width="5.51724" height="5.51724" fill="white"/>
<rect x="38.6207" y="71.7241" width="5.51724" height="5.51724" fill="white"/>
<rect x="49.6552" y="71.7241" width="5.51724" height="5.51724" fill="white"/>
<rect x="55.1724" y="71.7241" width="5.51724" height="5.51724" fill="white"/>
<rect x="88.2759" y="71.7241" width="5.51724" height="5.51724" fill="white"/>
<rect x="104.828" y="71.7241" width="5.51724" height="5.51724" fill="white"/>
<rect x="110.345" y="71.7241" width="5.51724" height="5.51724" fill="white"/>
<rect x="115.862" y="71.7241" width="5.51724" height="5.51724" fill="white"/>
<rect x="121.379" y="71.7241" width="5.51724" height="5.51724" fill="white"/>
<rect x="132.414" y="71.7241" width="5.51724" height="5.51724" fill="white"/>
<rect x="148.966" y="71.7241" width="5.51724" height="5.51724" fill="white"/>
<rect x="154.483" y="71.7241" width="5.51724" height="5.51724" fill="white"/>
<rect y="77.2414" width="5.51724" height="5.51724" fill="white"/>
<rect x="5.51721" y="77.2414" width="5.51724" height="5.51724" fill="white"/>
<rect x="22.069" y="77.2414" width="5.51724" height="5.51724" fill="white"/>
<rect x="33.1035" y="77.2414" width="5.51724" height="5.51724" fill="white"/>
<rect x="44.1379" y="77.2414" width="5.51724" height="5.51724" fill="white"/>
<rect x="49.6552" y="77.2414" width="5.51724" height="5.51724" fill="white"/>
<rect x="93.7931" y="77.2414" width="5.51724" height="5.51724" fill="white"/>
<rect x="99.3104" y="77.2414" width="5.51724" height="5.51724" fill="white"/>
<rect x="115.862" y="77.2414" width="5.51724" height="5.51724" fill="white"/>
<rect x="126.897" y="77.2414" width="5.51724" height="5.51724" fill="white"/>
<rect x="137.931" y="77.2414" width="5.51724" height="5.51724" fill="white"/>
<rect x="143.448" y="77.2414" width="5.51724" height="5.51724" fill="white"/>
<rect x="44.1379" y="82.7586" width="5.51724" height="5.51724" fill="white"/>
<rect x="49.6552" y="82.7586" width="5.51724" height="5.51724" fill="white"/>
<rect x="55.1724" y="82.7586" width="5.51724" height="5.51724" fill="white"/>
<rect x="82.7586" y="82.7586" width="5.51724" height="5.51724" fill="white"/>
<rect x="99.3104" y="82.7586" width="5.51724" height="5.51724" fill="white"/>
<rect x="104.828" y="82.7586" width="5.51724" height="5.51724" fill="white"/>
<rect x="126.897" y="82.7586" width="5.51724" height="5.51724" fill="white"/>
<rect x="132.414" y="82.7586" width="5.51724" height="5.51724" fill="white"/>
<rect x="143.448" y="82.7586" width="5.51724" height="5.51724" fill="white"/>
<rect x="154.483" y="82.7586" width="5.51724" height="5.51724" fill="white"/>
<rect y="88.2759" width="5.51724" height="5.51724" fill="white"/>
<rect x="22.069" y="88.2759" width="5.51724" height="5.51724" fill="white"/>
<rect x="27.5862" y="88.2759" width="5.51724" height="5.51724" fill="white"/>
<rect x="33.1035" y="88.2759" width="5.51724" height="5.51724" fill="white"/>
<rect x="60.6896" y="88.2759" width="5.51724" height="5.51724" fill="white"/>
<rect x="88.2759" y="88.2759" width="5.51724" height="5.51724" fill="white"/>
<rect x="93.7931" y="88.2759" width="5.51724" height="5.51724" fill="white"/>
<rect x="99.3104" y="88.2759" width="5.51724" height="5.51724" fill="white"/>
<rect x="104.828" y="88.2759" width="5.51724" height="5.51724" fill="white"/>
<rect x="126.897" y="88.2759" width="5.51724" height="5.51724" fill="white"/>
<rect x="137.931" y="88.2759" width="5.51724" height="5.51724" fill="white"/>
<rect x="143.448" y="88.2759" width="5.51724" height="5.51724" fill="white"/>
<rect y="93.7931" width="5.51724" height="5.51724" fill="white"/>
<rect x="38.6207" y="93.7931" width="5.51724" height="5.51724" fill="white"/>
<rect x="44.1379" y="93.7931" width="5.51724" height="5.51724" fill="white"/>
<rect x="49.6552" y="93.7931" width="5.51724" height="5.51724" fill="white"/>
<rect x="60.6896" y="93.7931" width="5.51724" height="5.51724" fill="white"/>
<rect x="71.7241" y="93.7931" width="5.51724" height="5.51724" fill="white"/>
<rect x="77.2414" y="93.7931" width="5.51724" height="5.51724" fill="white"/>
<rect x="93.7931" y="93.7931" width="5.51724" height="5.51724" fill="white"/>
<rect x="99.3104" y="93.7931" width="5.51724" height="5.51724" fill="white"/>
<rect x="104.828" y="93.7931" width="5.51724" height="5.51724" fill="white"/>
<rect x="110.345" y="93.7931" width="5.51724" height="5.51724" fill="white"/>
<rect x="121.379" y="93.7931" width="5.51724" height="5.51724" fill="white"/>
<rect x="126.897" y="93.7931" width="5.51724" height="5.51724" fill="white"/>
<rect x="132.414" y="93.7931" width="5.51724" height="5.51724" fill="white"/>
<rect x="143.448" y="93.7931" width="5.51724" height="5.51724" fill="white"/>
<rect x="148.966" y="93.7931" width="5.51724" height="5.51724" fill="white"/>
<rect x="154.483" y="93.7931" width="5.51724" height="5.51724" fill="white"/>
<rect y="99.3104" width="5.51724" height="5.51724" fill="white"/>
<rect x="5.51721" y="99.3104" width="5.51724" height="5.51724" fill="white"/>
<rect x="16.5517" y="99.3104" width="5.51724" height="5.51724" fill="white"/>
<rect x="22.069" y="99.3104" width="5.51724" height="5.51724" fill="white"/>
<rect x="27.5862" y="99.3104" width="5.51724" height="5.51724" fill="white"/>
<rect x="33.1035" y="99.3104" width="5.51724" height="5.51724" fill="white"/>
<rect x="44.1379" y="99.3104" width="5.51724" height="5.51724" fill="white"/>
<rect x="49.6552" y="99.3104" width="5.51724" height="5.51724" fill="white"/>
<rect x="60.6896" y="99.3104" width="5.51724" height="5.51724" fill="white"/>
<rect x="82.7586" y="99.3104" width="5.51724" height="5.51724" fill="white"/>
<rect x="104.828" y="99.3104" width="5.51724" height="5.51724" fill="white"/>
<rect x="137.931" y="99.3104" width="5.51724" height="5.51724" fill="white"/>
<rect x="154.483" y="99.3104" width="5.51724" height="5.51724" fill="white"/>
<rect y="104.828" width="5.51724" height="5.51724" fill="white"/>
<rect x="11.0345" y="104.828" width="5.51724" height="5.51724" fill="white"/>
<rect x="16.5517" y="104.828" width="5.51724" height="5.51724" fill="white"/>
<rect x="27.5862" y="104.828" width="5.51724" height="5.51724" fill="white"/>
<rect x="49.6552" y="104.828" width="5.51724" height="5.51724" fill="white"/>
<rect x="55.1724" y="104.828" width="5.51724" height="5.51724" fill="white"/>
<rect x="66.2069" y="104.828" width="5.51724" height="5.51724" fill="white"/>
<rect x="71.7241" y="104.828" width="5.51724" height="5.51724" fill="white"/>
<rect x="99.3104" y="104.828" width="5.51724" height="5.51724" fill="white"/>
<rect x="110.345" y="104.828" width="5.51724" height="5.51724" fill="white"/>
<rect x="115.862" y="104.828" width="5.51724" height="5.51724" fill="white"/>
<rect x="121.379" y="104.828" width="5.51724" height="5.51724" fill="white"/>
<rect x="126.897" y="104.828" width="5.51724" height="5.51724" fill="white"/>
<rect x="132.414" y="104.828" width="5.51724" height="5.51724" fill="white"/>
<rect y="110.345" width="5.51724" height="5.51724" fill="white"/>
<rect x="22.069" y="110.345" width="5.51724" height="5.51724" fill="white"/>
<rect x="33.1035" y="110.345" width="5.51724" height="5.51724" fill="white"/>
<rect x="38.6207" y="110.345" width="5.51724" height="5.51724" fill="white"/>
<rect x="49.6552" y="110.345" width="5.51724" height="5.51724" fill="white"/>
<rect x="60.6896" y="110.345" width="5.51724" height="5.51724" fill="white"/>
<rect x="77.2414" y="110.345" width="5.51724" height="5.51724" fill="white"/>
<rect x="82.7586" y="110.345" width="5.51724" height="5.51724" fill="white"/>
<rect x="93.7931" y="110.345" width="5.51724" height="5.51724" fill="white"/>
<rect x="110.345" y="110.345" width="5.51724" height="5.51724" fill="white"/>
<rect x="115.862" y="110.345" width="5.51724" height="5.51724" fill="white"/>
<rect x="121.379" y="110.345" width="5.51724" height="5.51724" fill="white"/>
<rect x="126.897" y="110.345" width="5.51724" height="5.51724" fill="white"/>
<rect x="132.414" y="110.345" width="5.51724" height="5.51724" fill="white"/>
<rect x="143.448" y="110.345" width="5.51724" height="5.51724" fill="white"/>
<rect x="148.966" y="110.345" width="5.51724" height="5.51724" fill="white"/>
<rect x="154.483" y="110.345" width="5.51724" height="5.51724" fill="white"/>
<rect x="44.1379" y="115.862" width="5.51724" height="5.51724" fill="white"/>
<rect x="49.6552" y="115.862" width="5.51724" height="5.51724" fill="white"/>
<rect x="55.1724" y="115.862" width="5.51724" height="5.51724" fill="white"/>
<rect x="77.2414" y="115.862" width="5.51724" height="5.51724" fill="white"/>
<rect x="93.7931" y="115.862" width="5.51724" height="5.51724" fill="white"/>
<rect x="99.3104" y="115.862" width="5.51724" height="5.51724" fill="white"/>
<rect x="110.345" y="115.862" width="5.51724" height="5.51724" fill="white"/>
<rect x="132.414" y="115.862" width="5.51724" height="5.51724" fill="white"/>
<rect x="137.931" y="115.862" width="5.51724" height="5.51724" fill="white"/>
<rect x="66.2069" y="121.379" width="5.51724" height="5.51724" fill="white"/>
<rect x="99.3104" y="121.379" width="5.51724" height="5.51724" fill="white"/>
<rect x="104.828" y="121.379" width="5.51724" height="5.51724" fill="white"/>
<rect x="110.345" y="121.379" width="5.51724" height="5.51724" fill="white"/>
<rect x="121.379" y="121.379" width="5.51724" height="5.51724" fill="white"/>
<rect x="132.414" y="121.379" width="5.51724" height="5.51724" fill="white"/>
<rect x="137.931" y="121.379" width="5.51724" height="5.51724" fill="white"/>
<rect x="143.448" y="121.379" width="5.51724" height="5.51724" fill="white"/>
<rect x="55.1724" y="126.897" width="5.51724" height="5.51724" fill="white"/>
<rect x="60.6896" y="126.897" width="5.51724" height="5.51724" fill="white"/>
<rect x="77.2414" y="126.897" width="5.51724" height="5.51724" fill="white"/>
<rect x="82.7586" y="126.897" width="5.51724" height="5.51724" fill="white"/>
<rect x="88.2759" y="126.897" width="5.51724" height="5.51724" fill="white"/>
<rect x="104.828" y="126.897" width="5.51724" height="5.51724" fill="white"/>
<rect x="110.345" y="126.897" width="5.51724" height="5.51724" fill="white"/>
<rect x="132.414" y="126.897" width="5.51724" height="5.51724" fill="white"/>
<rect x="154.483" y="126.897" width="5.51724" height="5.51724" fill="white"/>
<rect x="66.2069" y="132.414" width="5.51724" height="5.51724" fill="white"/>
<rect x="71.7241" y="132.414" width="5.51724" height="5.51724" fill="white"/>
<rect x="77.2414" y="132.414" width="5.51724" height="5.51724" fill="white"/>
<rect x="88.2759" y="132.414" width="5.51724" height="5.51724" fill="white"/>
<rect x="104.828" y="132.414" width="5.51724" height="5.51724" fill="white"/>
<rect x="110.345" y="132.414" width="5.51724" height="5.51724" fill="white"/>
<rect x="115.862" y="132.414" width="5.51724" height="5.51724" fill="white"/>
<rect x="121.379" y="132.414" width="5.51724" height="5.51724" fill="white"/>
<rect x="126.897" y="132.414" width="5.51724" height="5.51724" fill="white"/>
<rect x="132.414" y="132.414" width="5.51724" height="5.51724" fill="white"/>
<rect x="137.931" y="132.414" width="5.51724" height="5.51724" fill="white"/>
<rect x="49.6552" y="137.931" width="5.51724" height="5.51724" fill="white"/>
<rect x="55.1724" y="137.931" width="5.51724" height="5.51724" fill="white"/>
<rect x="60.6896" y="137.931" width="5.51724" height="5.51724" fill="white"/>
<rect x="71.7241" y="137.931" width="5.51724" height="5.51724" fill="white"/>
<rect x="77.2414" y="137.931" width="5.51724" height="5.51724" fill="white"/>
<rect x="93.7931" y="137.931" width="5.51724" height="5.51724" fill="white"/>
<rect x="99.3104" y="137.931" width="5.51724" height="5.51724" fill="white"/>
<rect x="115.862" y="137.931" width="5.51724" height="5.51724" fill="white"/>
<rect x="126.897" y="137.931" width="5.51724" height="5.51724" fill="white"/>
<rect x="137.931" y="137.931" width="5.51724" height="5.51724" fill="white"/>
<rect x="143.448" y="137.931" width="5.51724" height="5.51724" fill="white"/>
<rect x="148.966" y="137.931" width="5.51724" height="5.51724" fill="white"/>
<rect x="49.6552" y="143.448" width="5.51724" height="5.51724" fill="white"/>
<rect x="55.1724" y="143.448" width="5.51724" height="5.51724" fill="white"/>
<rect x="82.7586" y="143.448" width="5.51724" height="5.51724" fill="white"/>
<rect x="88.2759" y="143.448" width="5.51724" height="5.51724" fill="white"/>
<rect x="93.7931" y="143.448" width="5.51724" height="5.51724" fill="white"/>
<rect x="104.828" y="143.448" width="5.51724" height="5.51724" fill="white"/>
<rect x="115.862" y="143.448" width="5.51724" height="5.51724" fill="white"/>
<rect x="121.379" y="143.448" width="5.51724" height="5.51724" fill="white"/>
<rect x="126.897" y="143.448" width="5.51724" height="5.51724" fill="white"/>
<rect x="132.414" y="143.448" width="5.51724" height="5.51724" fill="white"/>
<rect x="137.931" y="143.448" width="5.51724" height="5.51724" fill="white"/>
<rect x="143.448" y="143.448" width="5.51724" height="5.51724" fill="white"/>
<rect x="148.966" y="143.448" width="5.51724" height="5.51724" fill="white"/>
<rect x="66.2069" y="148.966" width="5.51724" height="5.51724" fill="white"/>
<rect x="82.7586" y="148.966" width="5.51724" height="5.51724" fill="white"/>
<rect x="104.828" y="148.966" width="5.51724" height="5.51724" fill="white"/>
<rect x="115.862" y="148.966" width="5.51724" height="5.51724" fill="white"/>
<rect x="126.897" y="148.966" width="5.51724" height="5.51724" fill="white"/>
<rect x="137.931" y="148.966" width="5.51724" height="5.51724" fill="white"/>
<rect x="143.448" y="148.966" width="5.51724" height="5.51724" fill="white"/>
<rect x="154.483" y="148.966" width="5.51724" height="5.51724" fill="white"/>
<rect x="44.1379" y="154.483" width="5.51724" height="5.51724" fill="white"/>
<rect x="49.6552" y="154.483" width="5.51724" height="5.51724" fill="white"/>
<rect x="60.6896" y="154.483" width="5.51724" height="5.51724" fill="white"/>
<rect x="71.7241" y="154.483" width="5.51724" height="5.51724" fill="white"/>
<rect x="77.2414" y="154.483" width="5.51724" height="5.51724" fill="white"/>
<rect x="93.7931" y="154.483" width="5.51724" height="5.51724" fill="white"/>
<rect x="99.3104" y="154.483" width="5.51724" height="5.51724" fill="white"/>
<rect x="104.828" y="154.483" width="5.51724" height="5.51724" fill="white"/>
<rect x="115.862" y="154.483" width="5.51724" height="5.51724" fill="white"/>
<rect x="121.379" y="154.483" width="5.51724" height="5.51724" fill="white"/>
<rect x="126.897" y="154.483" width="5.51724" height="5.51724" fill="white"/>
<rect x="132.414" y="154.483" width="5.51724" height="5.51724" fill="white"/>
<rect x="137.931" y="154.483" width="5.51724" height="5.51724" fill="white"/>
<rect x="143.448" y="154.483" width="5.51724" height="5.51724" fill="white"/>
<path fill-rule="evenodd" clip-rule="evenodd" d="M5.7931 0H32.8276H38.6207V5.7931V32.8276V38.6207H32.8276H5.7931H0V32.8276V5.7931V0H5.7931ZM5.7931 32.8276H32.8276V5.7931H5.7931V32.8276Z" fill="white"/>
<path fill-rule="evenodd" clip-rule="evenodd" d="M127.172 0H154.207H160V5.7931V32.8276V38.6207H154.207H127.172H121.379V32.8276V5.7931V0H127.172ZM127.172 32.8276H154.207V5.7931H127.172V32.8276Z" fill="white"/>
<path fill-rule="evenodd" clip-rule="evenodd" d="M5.7931 121.379H32.8276H38.6207V127.172V154.207V160H32.8276H5.7931H0V154.207V127.172V121.379H5.7931ZM5.7931 154.207H32.8276V127.172H5.7931V154.207Z" fill="white"/>
<rect x="11.0345" y="11.0345" width="16.5517" height="16.5517" fill="white"/>
<rect x="132.414" y="11.0345" width="16.5517" height="16.5517" fill="white"/>
<rect x="11.0345" y="132.414" width="16.5517" height="16.5517" fill="white"/>
</svg>
